<svg width="36" height="9" viewBox="0 0 36 9" fill="none" xmlns="http://www.w3.org/2000/svg">
<path d="M1.25 3H0.352273V0.090909H1.28977C1.57197 0.090909 1.81345 0.149148 2.0142 0.265625C2.21496 0.381155 2.36884 0.547348 2.47585 0.764205C2.58286 0.980114 2.63636 1.23864 2.63636 1.53977C2.63636 1.8428 2.58239 2.10369 2.47443 2.32244C2.36648 2.54025 2.20928 2.70786 2.00284 2.82528C1.7964 2.94176 1.54545 3 1.25 3ZM0.704545 2.6875H1.22727C1.4678 2.6875 1.66714 2.6411 1.82528 2.5483C1.98343 2.45549 2.10133 2.32339 2.17898 2.15199C2.25663 1.98059 2.29545 1.77652 2.29545 1.53977C2.29545 1.30492 2.2571 1.10275 2.1804 0.933239C2.10369 0.762784 1.98911 0.632102 1.83665 0.541193C1.68419 0.449337 1.49432 0.403409 1.26705 0.403409H0.704545V2.6875ZM3.57955 0.090909V3H3.22727V0.090909H3.57955ZM6.2745 1C6.24325 0.904356 6.20206 0.818655 6.15092 0.742898C6.10073 0.666193 6.0406 0.600852 5.97053 0.546875C5.9014 0.492898 5.8228 0.451704 5.73473 0.423295C5.64666 0.394886 5.55007 0.380682 5.44496 0.380682C5.27261 0.380682 5.11589 0.425189 4.97479 0.514205C4.83369 0.60322 4.72147 0.734375 4.63814 0.90767C4.55481 1.08097 4.51314 1.29356 4.51314 1.54545C4.51314 1.79735 4.55528 2.00994 4.63956 2.18324C4.72384 2.35653 4.83795 2.48769 4.98189 2.5767C5.12583 2.66572 5.28776 2.71023 5.46768 2.71023C5.63435 2.71023 5.78113 2.67472 5.90803 2.60369C6.03587 2.53172 6.1353 2.4304 6.20632 2.29972C6.27829 2.16809 6.31428 2.01326 6.31428 1.83523L6.42223 1.85795H5.54723V1.54545H6.65518V1.85795C6.65518 2.09754 6.60405 2.30587 6.50178 2.48295C6.40045 2.66004 6.2603 2.79735 6.08132 2.89489C5.90329 2.99148 5.69875 3.03977 5.46768 3.03977C5.21011 3.03977 4.98378 2.97917 4.78871 2.85795C4.59458 2.73674 4.44306 2.56439 4.33416 2.34091C4.22621 2.11742 4.17223 1.85227 4.17223 1.54545C4.17223 1.31534 4.20301 1.10843 4.26456 0.924716C4.32706 0.740057 4.41513 0.58286 4.52876 0.453125C4.6424 0.32339 4.77687 0.223958 4.93217 0.15483C5.08748 0.0857007 5.2584 0.0511363 5.44496 0.0511363C5.59837 0.0511363 5.74136 0.074337 5.87393 0.120739C6.00746 0.166193 6.1263 0.23106 6.23047 0.315341C6.33558 0.398674 6.42318 0.498579 6.49325 0.615057C6.56333 0.730587 6.61162 0.858902 6.63814 1H6.2745ZM7.6108 0.090909V3H7.25852V0.090909H7.6108ZM8.15803 0.403409V0.090909H10.3398V0.403409H9.42507V3H9.0728V0.403409H8.15803ZM10.663 3H10.2937L11.3619 0.090909H11.7255L12.7937 3H12.4244L11.555 0.551136H11.5323L10.663 3ZM10.7994 1.86364H12.288V2.17614H10.7994V1.86364ZM13.2468 3V0.090909H13.5991V2.6875H14.9513V3H13.2468ZM16.6218 3V0.090909H17.6048C17.833 0.090909 18.0195 0.132102 18.1644 0.214489C18.3103 0.295928 18.4182 0.40625 18.4883 0.545455C18.5584 0.684659 18.5934 0.839962 18.5934 1.01136C18.5934 1.18277 18.5584 1.33854 18.4883 1.47869C18.4192 1.61884 18.3121 1.73059 18.1673 1.81392C18.0224 1.89631 17.8368 1.9375 17.6104 1.9375H16.9059V1.625H17.5991C17.7553 1.625 17.8808 1.59801 17.9755 1.54403C18.0702 1.49006 18.1388 1.41714 18.1815 1.32528C18.225 1.23248 18.2468 1.12784 18.2468 1.01136C18.2468 0.894886 18.225 0.79072 18.1815 0.698864C18.1388 0.607008 18.0697 0.535038 17.9741 0.482955C17.8784 0.429924 17.7515 0.403409 17.5934 0.403409H16.9741V3H16.6218ZM19.1609 3V0.090909H20.1438C20.3711 0.090909 20.5576 0.129735 20.7035 0.207386C20.8493 0.284091 20.9573 0.389678 21.0273 0.524148C21.0974 0.658617 21.1325 0.811553 21.1325 0.982955C21.1325 1.15436 21.0974 1.30634 21.0273 1.43892C20.9573 1.5715 20.8498 1.67566 20.7049 1.75142C20.56 1.82623 20.3749 1.86364 20.1495 1.86364H19.354V1.54545H20.1381C20.2934 1.54545 20.4184 1.52273 20.5131 1.47727C20.6088 1.43182 20.6779 1.36742 20.7205 1.28409C20.7641 1.19981 20.7859 1.09943 20.7859 0.982955C20.7859 0.866477 20.7641 0.764678 20.7205 0.677557C20.677 0.590436 20.6074 0.523201 20.5117 0.475852C20.4161 0.427557 20.2897 0.403409 20.1325 0.403409H19.5131V3H19.1609ZM20.5302 1.69318L21.2461 3H20.837L20.1325 1.69318H20.5302ZM24.174 1.54545C24.174 1.85227 24.1186 2.11742 24.0078 2.34091C23.897 2.56439 23.745 2.73674 23.5518 2.85795C23.3587 2.97917 23.138 3.03977 22.8899 3.03977C22.6418 3.03977 22.4212 2.97917 22.228 2.85795C22.0348 2.73674 21.8828 2.56439 21.772 2.34091C21.6612 2.11742 21.6058 1.85227 21.6058 1.54545C21.6058 1.23864 21.6612 0.973485 21.772 0.75C21.8828 0.526515 22.0348 0.354167 22.228 0.232955C22.4212 0.111742 22.6418 0.0511363 22.8899 0.0511363C23.138 0.0511363 23.3587 0.111742 23.5518 0.232955C23.745 0.354167 23.897 0.526515 24.0078 0.75C24.1186 0.973485 24.174 1.23864 24.174 1.54545ZM23.8331 1.54545C23.8331 1.29356 23.791 1.08097 23.7067 0.90767C23.6233 0.734375 23.5102 0.60322 23.3672 0.514205C23.2251 0.425189 23.0661 0.380682 22.8899 0.380682C22.7138 0.380682 22.5542 0.425189 22.4112 0.514205C22.2692 0.60322 22.156 0.734375 22.0717 0.90767C21.9884 1.08097 21.9467 1.29356 21.9467 1.54545C21.9467 1.79735 21.9884 2.00994 22.0717 2.18324C22.156 2.35653 22.2692 2.48769 22.4112 2.5767C22.5542 2.66572 22.7138 2.71023 22.8899 2.71023C23.0661 2.71023 23.2251 2.66572 23.3672 2.5767C23.5102 2.48769 23.6233 2.35653 23.7067 2.18324C23.791 2.00994 23.8331 1.79735 23.8331 1.54545ZM25.6641 3H24.7663V0.090909H25.7038C25.986 0.090909 26.2275 0.149148 26.4283 0.265625C26.629 0.381155 26.7829 0.547348 26.8899 0.764205C26.9969 0.980114 27.0504 1.23864 27.0504 1.53977C27.0504 1.8428 26.9964 2.10369 26.8885 2.32244C26.7805 2.54025 26.6233 2.70786 26.4169 2.82528C26.2105 2.94176 25.9595 3 25.6641 3ZM25.1186 2.6875H25.6413C25.8819 2.6875 26.0812 2.6411 26.2393 2.5483C26.3975 2.45549 26.5154 2.32339 26.593 2.15199C26.6707 1.98059 26.7095 1.77652 26.7095 1.53977C26.7095 1.30492 26.6712 1.10275 26.5945 0.933239C26.5178 0.762784 26.4032 0.632102 26.2507 0.541193C26.0982 0.449337 25.9084 0.403409 25.6811 0.403409H25.1186V2.6875ZM29.5504 0.090909H29.9027V2.01705C29.9027 2.21591 29.8558 2.39347 29.7621 2.54972C29.6693 2.70502 29.5381 2.82765 29.3686 2.91761C29.1991 3.00663 29.0002 3.05114 28.772 3.05114C28.5438 3.05114 28.3449 3.00663 28.1754 2.91761C28.0059 2.82765 27.8743 2.70502 27.7805 2.54972C27.6877 2.39347 27.6413 2.21591 27.6413 2.01705V0.090909H27.9936V1.98864C27.9936 2.13068 28.0249 2.2571 28.0874 2.3679C28.1499 2.47775 28.2389 2.56439 28.3544 2.62784C28.4709 2.69034 28.6101 2.72159 28.772 2.72159C28.9339 2.72159 29.0732 2.69034 29.1896 2.62784C29.3061 2.56439 29.3951 2.47775 29.4567 2.3679C29.5192 2.2571 29.5504 2.13068 29.5504 1.98864V0.090909ZM32.9471 1H32.5948C32.574 0.898674 32.5375 0.809659 32.4854 0.732955C32.4343 0.65625 32.3718 0.591856 32.2979 0.539773C32.225 0.486742 32.1441 0.44697 32.055 0.420455C31.966 0.393939 31.8732 0.380682 31.7766 0.380682C31.6005 0.380682 31.4409 0.425189 31.2979 0.514205C31.1559 0.60322 31.0427 0.734375 30.9585 0.90767C30.8751 1.08097 30.8335 1.29356 30.8335 1.54545C30.8335 1.79735 30.8751 2.00994 30.9585 2.18324C31.0427 2.35653 31.1559 2.48769 31.2979 2.5767C31.4409 2.66572 31.6005 2.71023 31.7766 2.71023C31.8732 2.71023 31.966 2.69697 32.055 2.67045C32.1441 2.64394 32.225 2.60464 32.2979 2.55256C32.3718 2.49953 32.4343 2.43466 32.4854 2.35795C32.5375 2.2803 32.574 2.19129 32.5948 2.09091H32.9471C32.9206 2.23958 32.8723 2.37263 32.8022 2.49006C32.7321 2.60748 32.645 2.70739 32.5408 2.78977C32.4367 2.87121 32.3197 2.93324 32.19 2.97585C32.0612 3.01847 31.9234 3.03977 31.7766 3.03977C31.5285 3.03977 31.3079 2.97917 31.1147 2.85795C30.9215 2.73674 30.7695 2.56439 30.6587 2.34091C30.5479 2.11742 30.4925 1.85227 30.4925 1.54545C30.4925 1.23864 30.5479 0.973485 30.6587 0.75C30.7695 0.526515 30.9215 0.354167 31.1147 0.232955C31.3079 0.111742 31.5285 0.0511363 31.7766 0.0511363C31.9234 0.0511363 32.0612 0.0724431 32.19 0.115057C32.3197 0.15767 32.4367 0.22017 32.5408 0.302557C32.645 0.383996 32.7321 0.483428 32.8022 0.600852C32.8723 0.717329 32.9206 0.850379 32.9471 1ZM33.3572 0.403409V0.090909H35.5391V0.403409H34.6243V3H34.272V0.403409H33.3572ZM0.352273 8V5.09091H2.10795V5.40341H0.704545V6.38636H2.01705V6.69886H0.704545V7.6875H2.13068V8H0.352273ZM5.04972 5.09091V8H4.70881L3.12358 5.71591H3.09517V8H2.7429V5.09091H3.08381L4.67472 7.38068H4.70312V5.09091H5.04972ZM7.74325 6C7.712 5.90436 7.67081 5.81866 7.61967 5.7429C7.56948 5.66619 7.50935 5.60085 7.43928 5.54688C7.37015 5.4929 7.29155 5.4517 7.20348 5.4233C7.11541 5.39489 7.01882 5.38068 6.91371 5.38068C6.74136 5.38068 6.58464 5.42519 6.44354 5.5142C6.30244 5.60322 6.19022 5.73438 6.10689 5.90767C6.02356 6.08097 5.98189 6.29356 5.98189 6.54545C5.98189 6.79735 6.02403 7.00994 6.10831 7.18324C6.19259 7.35653 6.3067 7.48769 6.45064 7.5767C6.59458 7.66572 6.75651 7.71023 6.93643 7.71023C7.1031 7.71023 7.24988 7.67472 7.37678 7.60369C7.50462 7.53172 7.60405 7.4304 7.67507 7.29972C7.74704 7.16809 7.78303 7.01326 7.78303 6.83523L7.89098 6.85795H7.01598V6.54545H8.12393V6.85795C8.12393 7.09754 8.0728 7.30587 7.97053 7.48295C7.8692 7.66004 7.72905 7.79735 7.55007 7.89489C7.37204 7.99148 7.1675 8.03977 6.93643 8.03977C6.67886 8.03977 6.45253 7.97917 6.25746 7.85795C6.06333 7.73674 5.91181 7.56439 5.80291 7.34091C5.69496 7.11742 5.64098 6.85227 5.64098 6.54545C5.64098 6.31534 5.67176 6.10843 5.73331 5.92472C5.79581 5.74006 5.88388 5.58286 5.99751 5.45312C6.11115 5.32339 6.24562 5.22396 6.40092 5.15483C6.55623 5.0857 6.72715 5.05114 6.91371 5.05114C7.06712 5.05114 7.21011 5.07434 7.34268 5.12074C7.47621 5.16619 7.59505 5.23106 7.69922 5.31534C7.80433 5.39867 7.89193 5.49858 7.962 5.61506C8.03208 5.73059 8.08037 5.8589 8.10689 6H7.74325ZM9.07955 5.09091V8H8.72727V5.09091H9.07955ZM12.0927 5.09091V8H11.7518L10.1665 5.71591H10.1381V8H9.78587V5.09091H10.1268L11.7177 7.38068H11.7461V5.09091H12.0927ZM12.7976 8V5.09091H14.5533V5.40341H13.1499V6.38636H14.4624V6.69886H13.1499V7.6875H14.576V8H12.7976ZM15.1882 8V5.09091H16.9439V5.40341H15.5405V6.38636H16.853V6.69886H15.5405V7.6875H16.9666V8H15.1882ZM17.5788 8V5.09091H18.5618C18.7891 5.09091 18.9756 5.12973 19.1214 5.20739C19.2673 5.28409 19.3752 5.38968 19.4453 5.52415C19.5154 5.65862 19.5504 5.81155 19.5504 5.98295C19.5504 6.15436 19.5154 6.30634 19.4453 6.43892C19.3752 6.5715 19.2678 6.67566 19.1229 6.75142C18.978 6.82623 18.7929 6.86364 18.5675 6.86364H17.772V6.54545H18.5561C18.7114 6.54545 18.8364 6.52273 18.9311 6.47727C19.0268 6.43182 19.0959 6.36742 19.1385 6.28409C19.1821 6.19981 19.2038 6.09943 19.2038 5.98295C19.2038 5.86648 19.1821 5.76468 19.1385 5.67756C19.0949 5.59044 19.0253 5.5232 18.9297 5.47585C18.834 5.42756 18.7076 5.40341 18.5504 5.40341H17.9311V8H17.5788ZM18.9482 6.69318L19.6641 8H19.255L18.5504 6.69318H18.9482ZM20.4897 5.09091V8H20.1374V5.09091H20.4897ZM23.5028 5.09091V8H23.1619L21.5767 5.71591H21.5483V8H21.196V5.09091H21.5369L23.1278 7.38068H23.1562V5.09091H23.5028ZM26.1964 6C26.1651 5.90436 26.1239 5.81866 26.0728 5.7429C26.0226 5.66619 25.9625 5.60085 25.8924 5.54688C25.8233 5.4929 25.7447 5.4517 25.6566 5.4233C25.5685 5.39489 25.4719 5.38068 25.3668 5.38068C25.1945 5.38068 25.0378 5.42519 24.8967 5.5142C24.7556 5.60322 24.6433 5.73438 24.56 5.90767C24.4767 6.08097 24.435 6.29356 24.435 6.54545C24.435 6.79735 24.4772 7.00994 24.5614 7.18324C24.6457 7.35653 24.7598 7.48769 24.9038 7.5767C25.0477 7.66572 25.2096 7.71023 25.3896 7.71023C25.5562 7.71023 25.703 7.67472 25.8299 7.60369C25.9577 7.53172 26.0572 7.4304 26.1282 7.29972C26.2002 7.16809 26.2362 7.01326 26.2362 6.83523L26.3441 6.85795H25.4691V6.54545H26.5771V6.85795C26.5771 7.09754 26.5259 7.30587 26.4237 7.48295C26.3223 7.66004 26.1822 7.79735 26.0032 7.89489C25.8252 7.99148 25.6206 8.03977 25.3896 8.03977C25.132 8.03977 24.9057 7.97917 24.7106 7.85795C24.5165 7.73674 24.3649 7.56439 24.256 7.34091C24.1481 7.11742 24.0941 6.85227 24.0941 6.54545C24.0941 6.31534 24.1249 6.10843 24.1864 5.92472C24.2489 5.74006 24.337 5.58286 24.4506 5.45312C24.5643 5.32339 24.6987 5.22396 24.854 5.15483C25.0094 5.0857 25.1803 5.05114 25.3668 5.05114C25.5202 5.05114 25.6632 5.07434 25.7958 5.12074C25.9293 5.16619 26.0482 5.23106 26.1523 5.31534C26.2575 5.39867 26.3451 5.49858 26.4151 5.61506C26.4852 5.73059 26.5335 5.8589 26.56 6H26.1964ZM27.3793 8.02273C27.3092 8.02273 27.2491 7.99763 27.1989 7.94744C27.1487 7.89725 27.1236 7.83712 27.1236 7.76705C27.1236 7.69697 27.1487 7.63684 27.1989 7.58665C27.2491 7.53646 27.3092 7.51136 27.3793 7.51136C27.4493 7.51136 27.5095 7.53646 27.5597 7.58665C27.6098 7.63684 27.6349 7.69697 27.6349 7.76705C27.6349 7.81345 27.6231 7.85606 27.5994 7.89489C27.5767 7.93371 27.5459 7.96496 27.5071 7.98864C27.4692 8.01136 27.4266 8.02273 27.3793 8.02273Z" fill="black"/>
</svg>
